<svg width="213" height="213" viewBox="0 0 213 213" fill="none" xmlns="http://www.w3.org/2000/svg">
<path d="M46.3063 136.285C53.8238 109.434 89.5293 94.005 103.225 65.8417C109.851 52.2113 106.754 27.0436 95.442 16.9649C94.841 16.427 92.3495 11.5924 94.8861 13.4042C120.092 31.8467 140.585 56.1951 131.105 79.6949C117.949 112.31 84.0646 128.599 84.3121 161.808C84.4179 175.623 94.5957 186.706 107.537 198.293L108.066 200.714C74.463 191.124 37.5488 167.563 46.3063 136.285ZM131.116 172.751C150.637 155.193 162.554 144.527 157.515 124.192C163.644 133.598 169.336 146.643 164.474 156.809C160.126 165.896 155.797 172.227 139.961 181.086C131.568 185.778 125.26 190.861 119.988 199.366C119.714 190.464 121.431 181.464 131.116 172.751ZM109.446 142.524C116.912 128.79 127.81 118.961 138.372 104.872C145.87 94.8716 152.737 78.2635 145.559 64.7051L146.023 64.0569C157.022 76.3458 157.481 96.3818 154.031 111.225C148.609 134.563 129.284 143.994 118.055 161.059C113.657 167.743 111.157 175.929 112.403 184.507C99.9367 174.331 102.764 154.82 109.446 142.524Z" fill="url(#paint0_linear_5_7)"/>
<defs>
<linearGradient id="paint0_linear_5_7" x1="45" y1="200.714" x2="166.304" y2="200.714" gradientUnits="userSpaceOnUse">
<stop stop-color="#7F00FF"/>
<stop offset="1" stop-color="#E100FF"/>
</linearGradient>
</defs>
</svg>
