<svg width="257" height="51" viewBox="0 0 257 51" fill="none" xmlns="http://www.w3.org/2000/svg">
<g clip-path="url(#clip0_1_10)">
<path d="M0.353195 33.3326C2.38569 26.0729 12.0394 21.9014 15.7423 14.2868C17.5338 10.6016 16.6965 3.797 13.638 1.072C13.4755 0.926563 12.8019 -0.380558 13.4877 0.109306C20.3026 5.0956 25.8433 11.6787 23.2802 18.0323C19.7233 26.8506 10.5619 31.2545 10.6288 40.2333C10.6574 43.9685 13.4092 46.9649 16.9083 50.0976L17.0513 50.7524C7.96591 48.1594 -2.0146 41.7894 0.353195 33.3326ZM23.2832 43.192C28.561 38.4449 31.7832 35.5611 30.4207 30.063C32.0777 32.606 33.6167 36.1331 32.3022 38.8818C31.1266 41.3384 29.9564 43.0502 25.6747 45.4454C23.4055 46.7142 21.6998 48.0883 20.2746 50.3879C20.2004 47.9811 20.6647 45.5476 23.2832 43.192ZM17.4243 35.0195C19.4428 31.3062 22.3893 28.6488 25.2451 24.8394C27.2721 22.1357 29.1288 17.6453 27.1882 13.9795L27.3135 13.8043C30.2874 17.1269 30.4115 22.544 29.4787 26.5572C28.0127 32.8671 22.7879 35.4168 19.7519 40.0307C18.5629 41.838 17.8868 44.0513 18.2239 46.3704C14.8533 43.6192 15.6176 38.3439 17.4243 35.0195Z" fill="url(#paint0_linear_1_10)"/>
<path d="M54.2148 15.5994L54.2147 15.2553H46.4593V16.1023H50.9326V36.113H51.859V16.1023H54.2412C54.2059 15.82 54.1971 15.6524 54.2148 15.5994ZM54.903 15.2553V16.1023H56.3588V15.2553H54.903ZM65.623 29.7869C66.7523 29.1516 67.617 28.2561 68.217 27.1003C68.8169 25.9445 69.1169 24.6343 69.1169 23.1696V22.799C69.1169 20.6286 68.4684 18.8287 67.1714 17.3993C65.8744 15.97 64.0261 15.2553 61.6261 15.2553H59.7998V23.6461C60.0997 23.6637 60.3997 23.6725 60.6997 23.6725V16.1023H61.5732C63.7436 16.1023 65.3847 16.7332 66.4964 17.9949C67.6081 19.2566 68.164 20.8755 68.164 22.852V23.1431C68.164 25.1019 67.6081 26.7077 66.4964 27.9605C65.3847 29.2133 63.7436 29.8398 61.5732 29.8398H60.6997H59.7997V30.6869C60.3291 30.7045 60.682 30.7133 60.8585 30.7133H61.6261C62.8437 30.7133 63.9113 30.528 64.8289 30.1575L68.1111 36.113H69.1698L65.623 29.7869ZM79.6781 17.7699C79.6781 17.8758 79.9913 18.886 80.6178 20.8006C81.2442 22.7152 81.928 24.8107 82.6691 27.0871C83.4103 29.3634 84.4072 32.3722 85.6601 36.113H86.7983L79.784 15.2553H79.5722L72.6108 36.113H73.6961L79.6781 17.7699ZM79.2017 30.1839H78.2488L79.8369 36.113H80.7898L79.2017 30.1839ZM99.4771 15.7053L99.477 31.0045C99.477 31.4809 99.4858 32.0103 99.5035 32.5926C99.5211 33.175 99.53 33.4749 99.53 33.4926C99.4947 33.4397 99.3668 33.1529 99.1462 32.6323C98.9256 32.1118 98.7094 31.6486 98.4977 31.2427L98.1271 30.528H97.1742L100.086 36.113H100.324V15.7053H99.4771ZM92.0392 20.1521L92.4098 20.8668H93.3626L90.4246 15.2553H90.2393V35.716H91.0598V20.3639C91.0598 19.9227 91.051 19.4066 91.0334 18.8154C91.0157 18.2243 91.0069 17.9199 91.0069 17.9022C91.0245 17.9552 91.1481 18.2463 91.3775 18.7757C91.6069 19.3051 91.8275 19.7639 92.0392 20.1521ZM106.518 24.2284L108.874 26.4253C109.615 27.1135 110.197 27.8503 110.621 28.6355C111.044 29.4207 111.256 30.2104 111.256 31.0045V31.3486C111.273 31.9133 111.203 32.4162 111.044 32.8573H112.023C112.165 32.3809 112.226 31.8868 112.209 31.3751V31.0045C112.209 30.0516 111.966 29.1428 111.481 28.2782C110.996 27.4135 110.321 26.5665 109.456 25.7371L107.18 23.5931C106.456 22.9049 105.861 22.2608 105.393 21.6609C104.925 21.0609 104.691 20.3109 104.691 19.411V19.2522C104.691 18.3169 104.952 17.5625 105.472 16.9891C105.993 16.4156 106.721 16.1288 107.656 16.1288C108.327 16.1288 108.874 16.2303 109.297 16.4332C109.721 16.6361 110.153 16.9405 110.594 17.3464L111.203 16.6582C110.709 16.1994 110.201 15.8553 109.681 15.6259C109.16 15.3965 108.485 15.2818 107.656 15.2818C106.58 15.2818 105.666 15.6303 104.916 16.3273C104.166 17.0243 103.792 17.9905 103.792 19.2257V19.4375C103.792 20.4433 104.043 21.3035 104.546 22.0182C105.049 22.7329 105.706 23.4696 106.518 24.2284ZM111.653 33.8632H110.568C109.95 34.7631 108.962 35.222 107.603 35.2396C107.144 35.2396 106.73 35.1866 106.359 35.0807V36.0072C106.73 36.0778 107.144 36.113 107.603 36.113C108.556 36.113 109.376 35.9189 110.065 35.5307C110.753 35.1425 111.282 34.5866 111.653 33.8632ZM124.835 36.0601L124.887 35.2131C122.293 35.0366 120.229 33.9602 118.694 31.9839C117.229 30.1486 116.497 27.9341 116.497 25.3401C116.497 23.9813 116.717 22.8034 117.158 21.8065C117.6 20.8095 118.261 19.8434 119.144 18.9081C120.908 17.0553 123.114 16.1288 125.761 16.1288C127.367 16.1288 128.814 16.4729 130.102 17.1611C131.39 17.8493 132.44 18.8111 133.252 20.0463L133.887 19.5434C133.005 18.2023 131.858 17.1523 130.446 16.3935C129.105 15.67 127.587 15.3171 125.893 15.3348C124.464 15.3348 123.123 15.5774 121.87 16.0627C120.617 16.548 119.514 17.2935 118.561 18.2993C117.608 19.3228 116.889 20.3815 116.404 21.4756C115.919 22.5697 115.676 23.8579 115.676 25.3401C115.694 28.1459 116.497 30.5458 118.085 32.5398C119.779 34.6749 122.029 35.8483 124.835 36.0601ZM126.449 36.0866C127.896 35.9984 129.22 35.6543 130.42 35.0543C131.796 34.3485 132.952 33.3514 133.887 32.0633L133.278 31.5339C132.431 32.6986 131.364 33.6161 130.075 34.2867C128.964 34.8514 127.746 35.169 126.423 35.2396L126.449 36.0866ZM143.151 29.7869C144.281 29.1516 145.145 28.2561 145.745 27.1003C146.345 25.9445 146.645 24.6343 146.645 23.1696V22.799C146.645 20.6286 145.997 18.8287 144.7 17.3993C143.403 15.97 141.554 15.2553 139.154 15.2553H137.328V23.6461C137.628 23.6637 137.928 23.6725 138.228 23.6725V16.1023H139.101C141.272 16.1023 142.913 16.7332 144.025 17.9949C145.136 19.2566 145.692 20.8755 145.692 22.852V23.1431C145.692 25.1019 145.136 26.7077 144.025 27.9605C142.913 29.2133 141.272 29.8398 139.101 29.8398H138.228H137.328V30.6869C137.857 30.7045 138.21 30.7133 138.387 30.7133H139.154C140.372 30.7133 141.44 30.528 142.357 30.1575L145.639 36.113H146.698L143.151 29.7869ZM150.139 15.2553V36.113H150.827V15.2553H150.139ZM154.268 24.1225L154.268 36.113H159.35C160.868 36.113 162.068 35.5748 162.95 34.4984C163.832 33.422 164.274 32.0279 164.274 30.3163C164.274 29.8575 164.216 29.3325 164.102 28.7414C163.987 28.1502 163.793 27.5767 163.519 27.0209C163.246 26.465 162.875 25.9621 162.408 25.5121C161.94 25.0622 161.336 24.749 160.594 24.5725C161.336 24.1137 161.874 23.5005 162.209 22.7329C162.544 21.9653 162.712 21.158 162.712 20.3109C162.712 18.6875 162.262 17.439 161.362 16.5656C160.462 15.6921 159.236 15.2553 157.683 15.2553H154.268V23.4872H155.195L155.168 16.3406H157.762C159.227 16.3406 160.259 16.7244 160.859 17.492C161.459 18.2596 161.759 19.1992 161.759 20.3109C161.759 21.5109 161.486 22.4417 160.939 23.1034C160.392 23.7652 159.642 24.096 158.689 24.096H155.221L155.804 25.2607H159.35C160.074 25.2607 160.691 25.4239 161.203 25.7504C161.715 26.0768 162.134 26.4871 162.461 26.9812C162.787 27.4753 163.03 28.0311 163.188 28.6487C163.347 29.2663 163.427 29.8663 163.427 30.4486C163.427 31.0133 163.347 31.5692 163.188 32.1162C163.03 32.6632 162.791 33.1529 162.474 33.5852C162.156 34.0176 161.741 34.3661 161.23 34.6308C160.718 34.8955 160.109 35.0278 159.403 35.0278H155.168L155.195 24.1225H154.268ZM168.456 28.384V15.9965H174.808V15.2553H167.715V28.384H168.456ZM175.073 36.113V35.3984H168.456V29.9193H169.514V29.2046H167.715V36.113H175.073ZM191.696 15.2553L188.996 31.9574L185.767 15.2553H185.29L182.987 28.5164C182.987 28.5517 182.992 28.6752 183.001 28.887C183.009 29.0987 183.027 29.3369 183.053 29.6016C183.08 29.8663 183.106 30.1178 183.133 30.356C183.159 30.5942 183.181 30.7398 183.199 30.7927C183.676 28.2517 184.059 26.2136 184.35 24.6784C184.642 23.1431 184.911 21.7225 185.158 20.4168C185.405 19.1111 185.528 18.4316 185.528 18.3787C185.528 18.4493 185.705 19.4154 186.058 21.2771C186.411 23.1387 186.799 25.168 187.222 27.365C187.646 29.5619 188.211 32.478 188.916 36.113H189.075L192.543 15.2553H191.696ZM179.308 15.2553H178.514L181.981 36.113H182.114L182.511 34.6572L179.308 15.2553ZM195.984 15.2553V36.113H196.672V15.2553H195.984ZM202.548 35.1337L201.436 35.1336L211.389 15.3876V15.2553H209.165C209.165 15.4317 209.161 15.6215 209.152 15.8244C209.143 16.0273 209.139 16.1641 209.139 16.2347H210.065L200.113 35.9542V36.113H202.548V35.1337ZM204.374 15.2553H202.945V16.2347H204.374V15.7979V15.2553ZM208.159 35.1336V36.113H209.509V35.1336H208.159ZM221.897 17.7699C221.897 17.8758 222.21 18.886 222.837 20.8006C223.463 22.7152 224.147 24.8107 224.888 27.0871C225.629 29.3634 226.626 32.3722 227.879 36.113H229.017L222.003 15.2553H221.791L214.83 36.113H215.915L221.897 17.7699ZM221.421 30.1839H220.468L222.056 36.113H223.009L221.421 30.1839ZM238.281 29.7869C239.411 29.1516 240.275 28.2561 240.875 27.1003C241.475 25.9445 241.775 24.6343 241.775 23.1696V22.799C241.775 20.6286 241.127 18.8287 239.83 17.3993C238.533 15.97 236.685 15.2553 234.285 15.2553H232.458V23.6461C232.758 23.6637 233.058 23.6725 233.358 23.6725V16.1023H234.232C236.402 16.1023 238.043 16.7332 239.155 17.9949C240.267 19.2566 240.822 20.8755 240.822 22.852V23.1431C240.822 25.1019 240.267 26.7077 239.155 27.9605C238.043 29.2133 236.402 29.8398 234.232 29.8398H233.358H232.458V30.6869C232.988 30.7045 233.34 30.7133 233.517 30.7133H234.285C235.502 30.7133 236.57 30.528 237.487 30.1575L240.769 36.113H241.828L238.281 29.7869ZM247.651 36.113C248.428 36.113 249.151 36.0248 249.822 35.8484L249.61 35.0543C249.01 35.2131 248.357 35.2925 247.652 35.2925H246.09V16.1553H247.652C248.799 16.1553 249.853 16.3803 250.815 16.8303C251.776 17.2802 252.606 17.9023 253.303 18.6964C254 19.4904 254.547 20.4477 254.944 21.5683C255.341 22.6888 255.539 23.9196 255.539 25.2607V25.8166C255.539 26.8047 255.407 27.7753 255.142 28.7282C254.878 29.6811 254.516 30.5589 254.057 31.3619C253.598 32.1648 253.06 32.8662 252.443 33.4661C251.825 34.0661 251.172 34.4984 250.484 34.7631L250.801 35.5307C251.578 35.2131 252.301 34.7322 252.972 34.0882C253.643 33.4441 254.229 32.6897 254.732 31.8251C255.235 30.9604 255.632 30.0119 255.923 28.9796C256.214 27.9473 256.36 26.8929 256.36 25.8166V25.2607C256.36 23.8138 256.139 22.4859 255.698 21.2771C255.257 20.0682 254.648 19.0228 253.872 18.1405C253.095 17.2581 252.178 16.5699 251.119 16.0759C250.06 15.5819 248.905 15.3348 247.652 15.3348H245.269V36.1131L247.651 36.113Z" fill="white"/>
</g>
<defs>
<linearGradient id="paint0_linear_1_10" x1="0" y1="50.7524" x2="32.797" y2="50.7524" gradientUnits="userSpaceOnUse">
<stop stop-color="#7F00FF"/>
<stop offset="1" stop-color="#E100FF"/>
</linearGradient>
<clipPath id="clip0_1_10">
<rect width="256.36" height="50.7524" fill="white"/>
</clipPath>
</defs>
</svg>
