<svg width="33" height="51" viewBox="0 0 33 51" fill="none" xmlns="http://www.w3.org/2000/svg">
<path d="M0.353195 33.3326C2.38569 26.0729 12.0394 21.9014 15.7423 14.2868C17.5338 10.6016 16.6965 3.797 13.638 1.072C13.4755 0.926564 12.8019 -0.380559 13.4877 0.109308C20.3026 5.0956 25.8433 11.6787 23.2802 18.0323C19.7233 26.8506 10.5619 31.2545 10.6288 40.2333C10.6574 43.9685 13.4092 46.9649 16.9083 50.0976L17.0513 50.7524C7.96591 48.1594 -2.0146 41.7894 0.353195 33.3326ZM23.2832 43.192C28.561 38.4449 31.7832 35.5611 30.4207 30.063C32.0777 32.606 33.6167 36.1331 32.3022 38.8818C31.1266 41.3384 29.9564 43.0502 25.6747 45.4454C23.4055 46.7142 21.6998 48.0883 20.2746 50.3879C20.2004 47.9811 20.6647 45.5476 23.2832 43.192ZM17.4243 35.0195C19.4428 31.3062 22.3893 28.6488 25.2451 24.8394C27.2721 22.1357 29.1288 17.6453 27.1882 13.9795L27.3135 13.8043C30.2874 17.1269 30.4115 22.544 29.4787 26.5572C28.0127 32.8671 22.7879 35.4168 19.7519 40.0307C18.5629 41.838 17.8868 44.0513 18.2239 46.3704C14.8533 43.6192 15.6176 38.3439 17.4243 35.0195Z" fill="url(#paint0_linear_1_11)"/>
<defs>
<linearGradient id="paint0_linear_1_11" x1="0" y1="50.7524" x2="32.797" y2="50.7524" gradientUnits="userSpaceOnUse">
<stop stop-color="#7F00FF"/>
<stop offset="1" stop-color="#E100FF"/>
</linearGradient>
</defs>
</svg>
